<svg xmlns="http://www.w3.org/2000/svg" width="1000" height="390" viewBox="0 0 1000 390" data-palette="565ee6-a66ae7-accbf6-add1ea3a373e" role="img" aria-labelledby="hero-dark-title hero-dark-desc"><title id="hero-dark-title">hflock</title><desc id="hero-dark-desc">Give downloaded model files a checkable manifest.</desc><defs><linearGradient id="brand" gradientUnits="userSpaceOnUse" x2="1000" y2="390"><stop stop-color="#676fe9"/><stop offset=".6" stop-color="#a66ae7"/><stop offset="1" stop-color="#accbf6"/></linearGradient><radialGradient id="halo"><stop stop-color="#676fe9" stop-opacity=".22"/><stop offset="1" stop-color="#050712" stop-opacity="0"/></radialGradient><filter id="glow"><feGaussianBlur stdDeviation="5"/></filter><pattern id="grid" width="40" height="40" patternUnits="userSpaceOnUse"><path d="M40 0H0V40" fill="none" stroke="#171a41" stroke-opacity=".35" stroke-width=".6"/></pattern><marker id="arrow" viewBox="0 0 10 10" refX="8" refY="5" markerWidth="5" markerHeight="5" orient="auto"><path d="m1 1 7 4-7 4" fill="none" stroke="#676fe9" stroke-width="1.5"/></marker></defs><style>text{font-family:Arial,"Noto Sans",sans-serif}.flow{stroke-dasharray:10 110;animation:flow 6s linear infinite}.pulse{animation:pulse 5s ease-in-out infinite}.turn{transform-box:fill-box;transform-origin:center;animation:turn 36s linear infinite}@keyframes flow{to{stroke-dashoffset:-360}}@keyframes pulse{0%,100%{opacity:.45}50%{opacity:1}}@keyframes turn{to{transform:rotate(360deg)}}@media(prefers-reduced-motion:reduce){*{animation:none!important;transform:none!important}.flow{display:none}}</style><rect width="1000" height="390" rx="16" fill="#050712"/><rect width="1000" height="390" rx="16" fill="url(#grid)"/><ellipse cx="630.0" cy="167.7" rx="500.0" ry="273.0" fill="url(#halo)"/><circle cx="774.18" cy="255.91" r="0.74" fill="#a66ae7" opacity="0.25"/><circle cx="1058.46" cy="303.26" r="0.81" fill="#676fe9" opacity="0.41"/><circle cx="754.73" cy="416.56" r="0.84" fill="#676fe9" opacity="0.36"/><circle cx="864.49" cy="20.10" r="0.85" fill="#a66ae7" opacity="0.56"/><circle cx="757.46" cy="385.77" r="0.77" fill="#676fe9" opacity="0.24"/><circle cx="736.47" cy="416.38" r="1.48" fill="#676fe9" opacity="0.56"/><circle cx="663.80" cy="389.56" r="0.61" fill="#a66ae7" opacity="0.64"/><circle cx="713.98" cy="132.07" r="1.07" fill="#676fe9" opacity="0.79"/><circle cx="1029.91" cy="132.45" r="0.81" fill="#676fe9" opacity="0.46"/><circle cx="1031.05" cy="116.58" r="0.94" fill="#a66ae7" opacity="0.50"/><circle cx="719.37" cy="353.41" r="1.39" fill="#676fe9" opacity="0.43"/><circle cx="729.72" cy="42.45" r="0.65" fill="#676fe9" opacity="0.59"/><circle cx="592.97" cy="179.94" r="0.93" fill="#a66ae7" opacity="0.59"/><circle cx="1064.92" cy="228.74" r="1.40" fill="#676fe9" opacity="0.31"/><circle cx="924.93" cy="416.63" r="1.64" fill="#676fe9" opacity="0.79"/><circle cx="613.97" cy="286.02" r="1.61" fill="#a66ae7" opacity="0.36"/><circle cx="930.92" cy="279.11" r="0.86" fill="#676fe9" opacity="0.60"/><circle cx="635.68" cy="367.23" r="1.22" fill="#676fe9" opacity="0.53"/><circle cx="768.61" cy="36.41" r="1.49" fill="#a66ae7" opacity="0.40"/><circle cx="774.05" cy="155.17" r="0.97" fill="#676fe9" opacity="0.57"/><circle cx="606.18" cy="111.64" r="1.63" fill="#676fe9" opacity="0.32"/><circle cx="779.13" cy="63.71" r="1.45" fill="#a66ae7" opacity="0.39"/><circle cx="808.40" cy="123.16" r="1.62" fill="#676fe9" opacity="0.53"/><circle cx="627.55" cy="109.85" r="1.69" fill="#676fe9" opacity="0.31"/><circle cx="953.13" cy="125.59" r="1.09" fill="#a66ae7" opacity="0.50"/><circle cx="775.01" cy="372.72" r="1.13" fill="#676fe9" opacity="0.63"/><circle cx="784.45" cy="57.90" r="1.27" fill="#676fe9" opacity="0.47"/><circle cx="890.95" cy="193.44" r="1.37" fill="#a66ae7" opacity="0.43"/><circle cx="741.00" cy="83.68" r="1.03" fill="#676fe9" opacity="0.56"/><circle cx="842.50" cy="19.89" r="1.07" fill="#676fe9" opacity="0.56"/><circle cx="817.51" cy="38.43" r="1.06" fill="#a66ae7" opacity="0.57"/><circle cx="691.16" cy="275.67" r="1.16" fill="#676fe9" opacity="0.73"/><circle cx="703.82" cy="407.66" r="1.64" fill="#676fe9" opacity="0.21"/><circle cx="801.26" cy="40.74" r="1.49" fill="#a66ae7" opacity="0.55"/><circle cx="659.45" cy="362.63" r="0.86" fill="#676fe9" opacity="0.32"/><circle cx="579.60" cy="269.72" r="1.50" fill="#676fe9" opacity="0.73"/><circle cx="1076.52" cy="172.47" r="1.24" fill="#a66ae7" opacity="0.40"/><circle cx="863.61" cy="384.22" r="0.62" fill="#676fe9" opacity="0.64"/><circle cx="893.12" cy="413.49" r="1.36" fill="#676fe9" opacity="0.45"/><circle cx="817.20" cy="38.65" r="1.60" fill="#a66ae7" opacity="0.56"/><circle cx="636.49" cy="244.06" r="1.42" fill="#676fe9" opacity="0.29"/><circle cx="666.24" cy="63.51" r="1.10" fill="#676fe9" opacity="0.56"/><circle cx="941.71" cy="319.49" r="1.30" fill="#a66ae7" opacity="0.47"/><circle cx="1025.73" cy="310.46" r="1.20" fill="#676fe9" opacity="0.44"/><circle cx="1065.00" cy="166.92" r="1.66" fill="#676fe9" opacity="0.26"/><circle cx="588.63" cy="274.26" r="0.93" fill="#a66ae7" opacity="0.58"/><circle cx="867.28" cy="144.28" r="1.45" fill="#676fe9" opacity="0.57"/><circle cx="689.77" cy="156.96" r="1.25" fill="#676fe9" opacity="0.32"/><circle cx="819.91" cy="432.82" r="1.66" fill="#a66ae7" opacity="0.27"/><circle cx="850.80" cy="43.70" r="1.51" fill="#676fe9" opacity="0.24"/><circle cx="972.87" cy="105.25" r="0.96" fill="#676fe9" opacity="0.20"/><circle cx="892.22" cy="422.14" r="1.04" fill="#a66ae7" opacity="0.42"/><circle cx="685.53" cy="123.69" r="1.45" fill="#676fe9" opacity="0.25"/><circle cx="982.37" cy="189.02" r="1.13" fill="#676fe9" opacity="0.30"/><circle cx="946.48" cy="105.09" r="1.27" fill="#a66ae7" opacity="0.46"/><circle cx="655.30" cy="209.04" r="1.02" fill="#676fe9" opacity="0.60"/><circle cx="786.15" cy="399.44" r="0.85" fill="#676fe9" opacity="0.39"/><circle cx="899.40" cy="30.36" r="0.88" fill="#a66ae7" opacity="0.24"/><circle cx="825.59" cy="354.83" r="1.06" fill="#676fe9" opacity="0.38"/><circle cx="583.98" cy="212.84" r="0.91" fill="#676fe9" opacity="0.67"/><circle cx="714.29" cy="295.65" r="0.71" fill="#a66ae7" opacity="0.46"/><circle cx="712.03" cy="349.28" r="0.85" fill="#676fe9" opacity="0.42"/><circle cx="925.12" cy="124.45" r="1.12" fill="#676fe9" opacity="0.45"/><circle cx="1046.60" cy="323.08" r="1.40" fill="#a66ae7" opacity="0.66"/><circle cx="1056.73" cy="143.40" r="1.39" fill="#676fe9" opacity="0.67"/><circle cx="721.30" cy="197.69" r="0.75" fill="#676fe9" opacity="0.71"/><circle cx="766.82" cy="421.98" r="0.64" fill="#a66ae7" opacity="0.49"/><circle cx="890.97" cy="149.34" r="1.53" fill="#676fe9" opacity="0.51"/><circle cx="789.07" cy="234.72" r="1.22" fill="#676fe9" opacity="0.35"/><circle cx="746.58" cy="391.65" r="0.77" fill="#a66ae7" opacity="0.80"/><circle cx="956.64" cy="120.71" r="1.61" fill="#676fe9" opacity="0.28"/><circle cx="868.60" cy="262.02" r="0.85" fill="#676fe9" opacity="0.68"/><circle cx="781.56" cy="96.23" r="1.64" fill="#a66ae7" opacity="0.74"/><circle cx="627.19" cy="333.03" r="1.15" fill="#676fe9" opacity="0.49"/><circle cx="629.94" cy="96.32" r="1.07" fill="#676fe9" opacity="0.31"/><circle cx="585.15" cy="185.20" r="1.27" fill="#a66ae7" opacity="0.26"/><circle cx="786.51" cy="298.01" r="1.32" fill="#676fe9" opacity="0.43"/><circle cx="678.54" cy="224.51" r="1.08" fill="#676fe9" opacity="0.54"/><circle cx="597.78" cy="225.11" r="1.34" fill="#a66ae7" opacity="0.47"/><circle cx="823.85" cy="16.32" r="1.07" fill="#676fe9" opacity="0.56"/><circle cx="1066.18" cy="251.99" r="1.11" fill="#676fe9" opacity="0.49"/><circle cx="901.74" cy="197.75" r="0.89" fill="#a66ae7" opacity="0.25"/><circle cx="782.32" cy="17.85" r="1.17" fill="#676fe9" opacity="0.46"/><circle cx="842.74" cy="27.49" r="0.97" fill="#676fe9" opacity="0.51"/><circle cx="664.56" cy="93.80" r="1.23" fill="#a66ae7" opacity="0.24"/><circle cx="679.69" cy="365.37" r="1.67" fill="#676fe9" opacity="0.62"/><circle cx="756.28" cy="416.39" r="0.71" fill="#676fe9" opacity="0.43"/><circle cx="945.63" cy="282.54" r="1.43" fill="#a66ae7" opacity="0.29"/><circle cx="690.08" cy="334.78" r="1.41" fill="#676fe9" opacity="0.29"/><circle cx="840.52" cy="117.20" r="1.24" fill="#676fe9" opacity="0.55"/><circle cx="581.32" cy="293.52" r="0.94" fill="#a66ae7" opacity="0.46"/><circle cx="1020.90" cy="95.15" r="0.94" fill="#676fe9" opacity="0.49"/><circle cx="630.73" cy="86.24" r="0.77" fill="#676fe9" opacity="0.49"/><circle cx="822.15" cy="141.25" r="0.80" fill="#a66ae7" opacity="0.64"/><circle cx="705.31" cy="125.03" r="1.30" fill="#676fe9" opacity="0.43"/><circle cx="1049.06" cy="316.97" r="1.66" fill="#676fe9" opacity="0.28"/><circle cx="665.81" cy="354.22" r="0.64" fill="#a66ae7" opacity="0.67"/><circle cx="1003.37" cy="106.28" r="1.39" fill="#676fe9" opacity="0.70"/><circle cx="694.41" cy="396.91" r="1.05" fill="#676fe9" opacity="0.68"/><circle cx="650.92" cy="89.94" r="1.49" fill="#a66ae7" opacity="0.48"/><circle cx="1083.94" cy="243.79" r="1.15" fill="#676fe9" opacity="0.78"/><circle cx="743.00" cy="218.90" r="1.00" fill="#676fe9" opacity="0.38"/><circle cx="962.85" cy="312.97" r="1.67" fill="#a66ae7" opacity="0.67"/><circle cx="1073.56" cy="283.59" r="0.89" fill="#676fe9" opacity="0.34"/><circle cx="578.14" cy="163.08" r="0.86" fill="#676fe9" opacity="0.48"/><circle cx="600.36" cy="233.03" r="1.55" fill="#a66ae7" opacity="0.60"/><circle cx="758.73" cy="281.55" r="0.71" fill="#676fe9" opacity="0.75"/><circle cx="714.84" cy="38.14" r="1.02" fill="#676fe9" opacity="0.38"/><circle cx="867.73" cy="18.09" r="1.37" fill="#a66ae7" opacity="0.74"/><circle cx="709.75" cy="322.00" r="0.70" fill="#676fe9" opacity="0.42"/><circle cx="1083.40" cy="248.07" r="1.23" fill="#676fe9" opacity="0.68"/><circle cx="871.94" cy="401.10" r="1.22" fill="#a66ae7" opacity="0.25"/><circle cx="970.94" cy="82.61" r="1.57" fill="#676fe9" opacity="0.43"/><circle cx="909.37" cy="260.66" r="0.87" fill="#676fe9" opacity="0.70"/><circle cx="871.79" cy="332.07" r="1.41" fill="#a66ae7" opacity="0.52"/><circle cx="867.18" cy="53.10" r="1.08" fill="#676fe9" opacity="0.57"/><circle cx="1047.65" cy="146.24" r="1.25" fill="#676fe9" opacity="0.67"/><circle cx="939.27" cy="113.57" r="0.75" fill="#a66ae7" opacity="0.31"/><circle cx="854.56" cy="364.13" r="1.11" fill="#676fe9" opacity="0.63"/><circle cx="676.47" cy="232.48" r="0.64" fill="#676fe9" opacity="0.45"/><circle cx="721.42" cy="403.31" r="0.80" fill="#a66ae7" opacity="0.57"/><circle cx="737.77" cy="239.40" r="0.77" fill="#676fe9" opacity="0.42"/><circle cx="990.37" cy="209.42" r="1.59" fill="#676fe9" opacity="0.28"/><circle cx="577.98" cy="264.10" r="1.32" fill="#a66ae7" opacity="0.69"/><circle cx="832.03" cy="389.69" r="1.48" fill="#676fe9" opacity="0.34"/><circle cx="649.22" cy="84.83" r="0.86" fill="#676fe9" opacity="0.41"/><circle cx="963.04" cy="384.27" r="1.02" fill="#a66ae7" opacity="0.31"/><circle cx="940.47" cy="339.41" r="1.56" fill="#676fe9" opacity="0.23"/><circle cx="1082.89" cy="202.57" r="1.60" fill="#676fe9" opacity="0.48"/><circle cx="761.93" cy="120.89" r="0.80" fill="#a66ae7" opacity="0.54"/><circle cx="919.06" cy="211.65" r="1.04" fill="#676fe9" opacity="0.43"/><circle cx="986.63" cy="60.88" r="0.96" fill="#676fe9" opacity="0.67"/><circle cx="759.14" cy="368.28" r="0.65" fill="#a66ae7" opacity="0.22"/><circle cx="942.05" cy="363.96" r="0.86" fill="#676fe9" opacity="0.57"/><circle cx="607.65" cy="168.56" r="0.98" fill="#676fe9" opacity="0.58"/><circle cx="732.25" cy="204.79" r="1.43" fill="#a66ae7" opacity="0.47"/><circle cx="790.91" cy="426.05" r="1.52" fill="#676fe9" opacity="0.64"/><circle cx="1021.37" cy="145.72" r="0.83" fill="#676fe9" opacity="0.71"/><circle cx="688.23" cy="397.77" r="1.12" fill="#a66ae7" opacity="0.61"/><circle cx="798.98" cy="265.75" r="1.14" fill="#676fe9" opacity="0.55"/><circle cx="917.17" cy="39.92" r="1.23" fill="#676fe9" opacity="0.70"/><circle cx="709.05" cy="247.00" r="0.70" fill="#a66ae7" opacity="0.74"/><circle cx="1003.99" cy="219.42" r="1.48" fill="#676fe9" opacity="0.66"/><circle cx="817.41" cy="70.47" r="0.77" fill="#676fe9" opacity="0.46"/><circle cx="808.43" cy="238.00" r="1.20" fill="#a66ae7" opacity="0.49"/><circle cx="988.96" cy="94.08" r="1.10" fill="#676fe9" opacity="0.45"/><circle cx="602.42" cy="126.33" r="1.46" fill="#676fe9" opacity="0.23"/><circle cx="659.17" cy="376.22" r="0.76" fill="#a66ae7" opacity="0.52"/><circle cx="629.03" cy="148.30" r="0.84" fill="#676fe9" opacity="0.57"/><circle cx="851.91" cy="29.98" r="1.17" fill="#676fe9" opacity="0.65"/><circle cx="931.02" cy="47.09" r="1.38" fill="#a66ae7" opacity="0.64"/><circle cx="701.49" cy="188.82" r="1.44" fill="#676fe9" opacity="0.59"/><circle cx="1034.62" cy="107.89" r="0.64" fill="#676fe9" opacity="0.26"/><circle cx="903.58" cy="358.60" r="1.30" fill="#a66ae7" opacity="0.26"/><circle cx="689.67" cy="379.22" r="1.58" fill="#676fe9" opacity="0.70"/><circle cx="892.74" cy="165.28" r="1.27" fill="#676fe9" opacity="0.22"/><circle cx="931.69" cy="359.67" r="1.30" fill="#a66ae7" opacity="0.29"/><circle cx="870.38" cy="18.74" r="0.82" fill="#676fe9" opacity="0.52"/><circle cx="848.32" cy="176.30" r="1.24" fill="#676fe9" opacity="0.76"/><circle cx="1011.36" cy="316.76" r="1.11" fill="#a66ae7" opacity="0.52"/><circle cx="705.10" cy="396.25" r="1.17" fill="#676fe9" opacity="0.46"/><circle cx="693.09" cy="220.66" r="0.69" fill="#676fe9" opacity="0.22"/><circle cx="841.50" cy="363.60" r="1.32" fill="#a66ae7" opacity="0.52"/><circle cx="637.98" cy="100.00" r="1.63" fill="#676fe9" opacity="0.21"/><circle cx="1069.01" cy="192.86" r="1.40" fill="#676fe9" opacity="0.22"/><circle cx="833.26" cy="323.78" r="1.28" fill="#a66ae7" opacity="0.75"/><circle cx="679.31" cy="378.52" r="1.49" fill="#676fe9" opacity="0.48"/><circle cx="734.17" cy="113.29" r="0.65" fill="#676fe9" opacity="0.63"/><circle cx="1021.81" cy="250.59" r="1.25" fill="#a66ae7" opacity="0.72"/><circle cx="734.90" cy="381.72" r="0.73" fill="#676fe9" opacity="0.26"/><circle cx="757.04" cy="322.63" r="1.32" fill="#676fe9" opacity="0.77"/><circle cx="575.53" cy="283.73" r="0.92" fill="#a66ae7" opacity="0.60"/><circle cx="626.16" cy="352.28" r="0.91" fill="#676fe9" opacity="0.78"/><circle cx="587.61" cy="308.54" r="1.02" fill="#676fe9" opacity="0.44"/><circle cx="1005.34" cy="252.33" r="1.03" fill="#a66ae7" opacity="0.21"/><circle cx="688.46" cy="63.76" r="1.57" fill="#676fe9" opacity="0.47"/><circle cx="681.65" cy="64.46" r="1.21" fill="#676fe9" opacity="0.72"/><circle cx="1024.42" cy="260.20" r="1.05" fill="#a66ae7" opacity="0.63"/><circle cx="1034.78" cy="325.73" r="0.65" fill="#676fe9" opacity="0.72"/><circle cx="613.76" cy="171.67" r="1.53" fill="#676fe9" opacity="0.69"/><circle cx="643.28" cy="102.21" r="1.61" fill="#a66ae7" opacity="0.37"/><circle cx="895.53" cy="413.08" r="1.50" fill="#676fe9" opacity="0.53"/><circle cx="595.70" cy="180.24" r="0.92" fill="#676fe9" opacity="0.23"/><circle cx="657.56" cy="344.52" r="1.52" fill="#a66ae7" opacity="0.50"/><circle cx="831.30" cy="189.08" r="0.93" fill="#676fe9" opacity="0.70"/><circle cx="865.73" cy="246.32" r="0.77" fill="#676fe9" opacity="0.28"/><circle cx="956.14" cy="406.17" r="0.91" fill="#a66ae7" opacity="0.29"/><circle cx="729.48" cy="375.30" r="0.90" fill="#676fe9" opacity="0.42"/><circle cx="1027.24" cy="246.04" r="1.31" fill="#676fe9" opacity="0.69"/><circle cx="1049.30" cy="151.07" r="0.99" fill="#a66ae7" opacity="0.78"/><circle cx="836.92" cy="392.56" r="1.52" fill="#676fe9" opacity="0.62"/><circle cx="622.48" cy="116.03" r="0.92" fill="#676fe9" opacity="0.59"/><circle cx="985.77" cy="179.02" r="0.61" fill="#a66ae7" opacity="0.53"/><circle cx="876.26" cy="92.05" r="1.20" fill="#676fe9" opacity="0.49"/><circle cx="1068.60" cy="211.38" r="1.66" fill="#676fe9" opacity="0.76"/><circle cx="864.93" cy="404.75" r="1.33" fill="#a66ae7" opacity="0.64"/><circle cx="963.92" cy="178.26" r="1.03" fill="#676fe9" opacity="0.69"/><circle cx="686.85" cy="97.82" r="1.57" fill="#676fe9" opacity="0.29"/><circle cx="960.53" cy="210.28" r="1.12" fill="#a66ae7" opacity="0.51"/><circle cx="1075.14" cy="255.81" r="0.68" fill="#676fe9" opacity="0.70"/><circle cx="591.57" cy="181.53" r="0.67" fill="#676fe9" opacity="0.25"/><circle cx="836.35" cy="431.47" r="0.62" fill="#a66ae7" opacity="0.50"/><circle cx="867.28" cy="364.06" r="0.69" fill="#676fe9" opacity="0.26"/><circle cx="1016.20" cy="298.14" r="1.01" fill="#676fe9" opacity="0.80"/><circle cx="702.47" cy="283.18" r="0.71" fill="#a66ae7" opacity="0.22"/><circle cx="584.87" cy="145.65" r="0.90" fill="#676fe9" opacity="0.42"/><circle cx="987.33" cy="360.75" r="1.70" fill="#676fe9" opacity="0.48"/><circle cx="910.46" cy="286.43" r="0.77" fill="#a66ae7" opacity="0.50"/><circle cx="1071.03" cy="217.64" r="1.55" fill="#676fe9" opacity="0.22"/><circle cx="973.70" cy="338.05" r="0.69" fill="#676fe9" opacity="0.62"/><circle cx="970.68" cy="60.34" r="1.23" fill="#a66ae7" opacity="0.41"/><circle cx="717.00" cy="120.03" r="0.85" fill="#676fe9" opacity="0.20"/><circle cx="808.59" cy="51.60" r="1.67" fill="#676fe9" opacity="0.20"/><circle cx="1069.75" cy="193.67" r="0.76" fill="#a66ae7" opacity="0.29"/><circle cx="1078.67" cy="183.15" r="0.78" fill="#676fe9" opacity="0.37"/><circle cx="1059.90" cy="140.17" r="1.11" fill="#676fe9" opacity="0.48"/><circle cx="753.09" cy="423.75" r="1.61" fill="#a66ae7" opacity="0.67"/><circle cx="594.98" cy="276.23" r="1.54" fill="#676fe9" opacity="0.56"/><circle cx="1081.82" cy="208.61" r="1.29" fill="#676fe9" opacity="0.57"/><circle cx="926.36" cy="81.78" r="0.84" fill="#a66ae7" opacity="0.24"/><circle cx="1040.32" cy="108.49" r="1.63" fill="#676fe9" opacity="0.31"/><circle cx="582.21" cy="272.69" r="1.64" fill="#676fe9" opacity="0.46"/><circle cx="852.52" cy="411.07" r="1.12" fill="#a66ae7" opacity="0.67"/><circle cx="577.83" cy="221.17" r="1.60" fill="#676fe9" opacity="0.68"/><circle cx="691.65" cy="50.43" r="1.26" fill="#676fe9" opacity="0.51"/><circle cx="889.13" cy="69.62" r="1.13" fill="#a66ae7" opacity="0.59"/><circle cx="798.44" cy="432.99" r="1.53" fill="#676fe9" opacity="0.29"/><circle cx="815.11" cy="351.56" r="1.07" fill="#676fe9" opacity="0.77"/><circle cx="568.67" cy="259.63" r="1.36" fill="#a66ae7" opacity="0.38"/><circle cx="824.46" cy="379.98" r="1.05" fill="#676fe9" opacity="0.65"/><circle cx="800.09" cy="394.12" r="1.37" fill="#676fe9" opacity="0.51"/><circle cx="1014.03" cy="348.86" r="1.19" fill="#a66ae7" opacity="0.49"/><circle cx="895.34" cy="397.82" r="1.21" fill="#676fe9" opacity="0.44"/><circle cx="743.53" cy="80.68" r="1.03" fill="#676fe9" opacity="0.56"/><circle cx="898.95" cy="96.13" r="1.41" fill="#a66ae7" opacity="0.57"/><circle cx="814.14" cy="115.51" r="1.39" fill="#676fe9" opacity="0.40"/><circle cx="871.75" cy="429.16" r="1.60" fill="#676fe9" opacity="0.67"/><circle cx="756.61" cy="390.35" r="1.67" fill="#a66ae7" opacity="0.33"/><circle cx="630.01" cy="355.27" r="0.79" fill="#676fe9" opacity="0.52"/><circle cx="900.23" cy="48.04" r="1.49" fill="#676fe9" opacity="0.39"/><circle cx="774.25" cy="70.82" r="1.54" fill="#a66ae7" opacity="0.69"/><circle cx="1031.18" cy="351.58" r="1.24" fill="#676fe9" opacity="0.26"/><circle cx="779.66" cy="296.48" r="0.77" fill="#676fe9" opacity="0.28"/><circle cx="669.90" cy="122.15" r="1.13" fill="#a66ae7" opacity="0.45"/><circle cx="878.32" cy="414.41" r="1.15" fill="#676fe9" opacity="0.30"/><circle cx="1045.25" cy="169.92" r="1.56" fill="#676fe9" opacity="0.68"/><circle cx="856.36" cy="40.40" r="1.69" fill="#a66ae7" opacity="0.43"/><circle cx="658.06" cy="227.66" r="0.82" fill="#676fe9" opacity="0.25"/><circle cx="635.33" cy="100.25" r="0.81" fill="#676fe9" opacity="0.53"/><circle cx="693.51" cy="384.94" r="1.12" fill="#a66ae7" opacity="0.68"/><circle cx="711.09" cy="44.38" r="0.76" fill="#676fe9" opacity="0.29"/><circle cx="849.13" cy="154.42" r="1.26" fill="#676fe9" opacity="0.75"/><circle cx="945.32" cy="404.80" r="1.40" fill="#a66ae7" opacity="0.54"/><circle cx="792.19" cy="431.89" r="0.65" fill="#676fe9" opacity="0.25"/><circle cx="996.05" cy="326.39" r="1.19" fill="#676fe9" opacity="0.28"/><circle cx="741.80" cy="88.40" r="0.98" fill="#a66ae7" opacity="0.72"/><circle cx="898.03" cy="181.05" r="1.29" fill="#676fe9" opacity="0.74"/><circle cx="728.36" cy="156.81" r="0.79" fill="#676fe9" opacity="0.31"/><circle cx="733.97" cy="416.20" r="1.50" fill="#a66ae7" opacity="0.75"/><circle cx="570.32" cy="225.07" r="1.32" fill="#676fe9" opacity="0.46"/><circle cx="691.16" cy="116.10" r="1.55" fill="#676fe9" opacity="0.51"/><circle cx="1051.37" cy="143.75" r="1.68" fill="#a66ae7" opacity="0.60"/><circle cx="711.66" cy="137.16" r="0.84" fill="#676fe9" opacity="0.65"/><circle cx="880.62" cy="177.23" r="1.44" fill="#676fe9" opacity="0.25"/><circle cx="942.61" cy="194.76" r="0.61" fill="#a66ae7" opacity="0.52"/><circle cx="1046.40" cy="150.75" r="1.07" fill="#676fe9" opacity="0.51"/><circle cx="977.80" cy="258.46" r="1.30" fill="#676fe9" opacity="0.21"/><circle cx="1060.05" cy="145.24" r="1.25" fill="#a66ae7" opacity="0.64"/><circle cx="746.38" cy="172.77" r="1.66" fill="#676fe9" opacity="0.38"/><circle cx="995.53" cy="305.63" r="1.28" fill="#676fe9" opacity="0.32"/><circle cx="666.26" cy="389.56" r="1.51" fill="#a66ae7" opacity="0.69"/><circle cx="635.91" cy="169.12" r="0.78" fill="#676fe9" opacity="0.73"/><circle cx="855.14" cy="383.34" r="1.07" fill="#676fe9" opacity="0.32"/><circle cx="1037.41" cy="103.89" r="0.87" fill="#a66ae7" opacity="0.23"/><circle cx="705.54" cy="126.28" r="0.76" fill="#676fe9" opacity="0.30"/><circle cx="764.93" cy="429.17" r="1.26" fill="#676fe9" opacity="0.21"/><circle cx="916.08" cy="55.15" r="1.25" fill="#a66ae7" opacity="0.71"/><circle cx="670.74" cy="356.23" r="1.55" fill="#676fe9" opacity="0.50"/><circle cx="644.84" cy="261.28" r="1.40" fill="#676fe9" opacity="0.62"/><circle cx="892.57" cy="360.21" r="1.26" fill="#a66ae7" opacity="0.27"/><circle cx="1053.56" cy="268.46" r="0.92" fill="#676fe9" opacity="0.55"/><circle cx="781.74" cy="256.62" r="1.31" fill="#676fe9" opacity="0.65"/><circle cx="1065.21" cy="168.43" r="0.94" fill="#a66ae7" opacity="0.68"/><circle cx="964.98" cy="49.11" r="1.08" fill="#676fe9" opacity="0.30"/><circle cx="640.18" cy="369.41" r="1.33" fill="#676fe9" opacity="0.44"/><circle cx="944.01" cy="59.15" r="1.61" fill="#a66ae7" opacity="0.72"/><circle cx="692.52" cy="399.28" r="0.66" fill="#676fe9" opacity="0.61"/><circle cx="943.40" cy="334.90" r="1.36" fill="#676fe9" opacity="0.33"/><circle cx="607.30" cy="330.55" r="1.50" fill="#a66ae7" opacity="0.70"/><circle cx="797.64" cy="84.99" r="1.70" fill="#676fe9" opacity="0.79"/><circle cx="925.20" cy="62.97" r="0.76" fill="#676fe9" opacity="0.22"/><circle cx="965.81" cy="321.62" r="1.15" fill="#a66ae7" opacity="0.25"/><circle cx="899.90" cy="201.31" r="0.83" fill="#676fe9" opacity="0.27"/><circle cx="760.48" cy="59.39" r="1.00" fill="#676fe9" opacity="0.70"/><circle cx="739.72" cy="211.94" r="0.93" fill="#a66ae7" opacity="0.38"/><circle cx="1061.31" cy="208.47" r="1.66" fill="#676fe9" opacity="0.45"/><circle cx="861.16" cy="44.49" r="1.65" fill="#676fe9" opacity="0.73"/><circle cx="1082.47" cy="247.34" r="0.76" fill="#a66ae7" opacity="0.37"/><circle cx="788.74" cy="190.02" r="1.59" fill="#676fe9" opacity="0.64"/><circle cx="714.38" cy="211.72" r="1.17" fill="#676fe9" opacity="0.60"/><circle cx="616.56" cy="240.13" r="0.61" fill="#a66ae7" opacity="0.79"/><circle cx="565.67" cy="216.62" r="1.12" fill="#676fe9" opacity="0.24"/><circle cx="907.99" cy="168.99" r="1.17" fill="#676fe9" opacity="0.59"/><circle cx="977.88" cy="376.23" r="0.79" fill="#a66ae7" opacity="0.57"/><circle cx="843.30" cy="151.37" r="0.79" fill="#676fe9" opacity="0.65"/><circle cx="570.53" cy="210.95" r="0.69" fill="#676fe9" opacity="0.53"/><circle cx="587.93" cy="247.54" r="1.08" fill="#a66ae7" opacity="0.24"/><circle cx="729.82" cy="393.51" r="0.91" fill="#676fe9" opacity="0.33"/><circle cx="738.89" cy="161.19" r="0.76" fill="#676fe9" opacity="0.60"/><circle cx="683.16" cy="248.17" r="1.05" fill="#a66ae7" opacity="0.66"/><circle cx="1039.30" cy="318.80" r="0.79" fill="#676fe9" opacity="0.24"/><circle cx="660.54" cy="382.41" r="1.32" fill="#676fe9" opacity="0.39"/><circle cx="826.74" cy="227.75" r="0.99" fill="#a66ae7" opacity="0.77"/><circle cx="1046.84" cy="282.14" r="0.70" fill="#676fe9" opacity="0.67"/><circle cx="881.20" cy="305.00" r="1.58" fill="#676fe9" opacity="0.47"/><circle cx="748.18" cy="375.56" r="0.70" fill="#a66ae7" opacity="0.77"/><circle cx="660.20" cy="196.09" r="1.56" fill="#676fe9" opacity="0.72"/><circle cx="1067.34" cy="298.14" r="1.53" fill="#676fe9" opacity="0.77"/><circle cx="1045.85" cy="194.01" r="1.27" fill="#a66ae7" opacity="0.34"/><circle cx="775.23" cy="307.05" r="0.81" fill="#676fe9" opacity="0.62"/><circle cx="951.94" cy="378.83" r="1.66" fill="#676fe9" opacity="0.72"/><circle cx="913.02" cy="112.17" r="0.63" fill="#a66ae7" opacity="0.58"/><circle cx="600.68" cy="121.06" r="1.38" fill="#676fe9" opacity="0.73"/><circle cx="1013.93" cy="307.48" r="0.65" fill="#676fe9" opacity="0.43"/><circle cx="973.14" cy="361.64" r="0.95" fill="#a66ae7" opacity="0.61"/><circle cx="959.35" cy="357.77" r="0.75" fill="#676fe9" opacity="0.32"/><circle cx="575.77" cy="186.64" r="1.38" fill="#676fe9" opacity="0.45"/><circle cx="1055.02" cy="146.49" r="0.75" fill="#a66ae7" opacity="0.73"/><circle cx="811.96" cy="150.54" r="1.01" fill="#676fe9" opacity="0.31"/><circle cx="871.64" cy="287.13" r="1.56" fill="#676fe9" opacity="0.75"/><circle cx="630.62" cy="241.00" r="0.87" fill="#a66ae7" opacity="0.33"/><circle cx="1042.20" cy="333.04" r="0.69" fill="#676fe9" opacity="0.60"/><circle cx="771.03" cy="427.17" r="1.32" fill="#676fe9" opacity="0.34"/><circle cx="839.72" cy="87.91" r="0.63" fill="#a66ae7" opacity="0.25"/><circle cx="867.15" cy="320.72" r="0.98" fill="#676fe9" opacity="0.76"/><circle cx="581.69" cy="281.25" r="0.99" fill="#676fe9" opacity="0.73"/><circle cx="795.78" cy="17.46" r="0.96" fill="#a66ae7" opacity="0.68"/><circle cx="1060.03" cy="279.32" r="1.67" fill="#676fe9" opacity="0.62"/><circle cx="780.85" cy="387.10" r="1.13" fill="#676fe9" opacity="0.41"/><circle cx="1008.99" cy="78.56" r="1.51" fill="#a66ae7" opacity="0.61"/><circle cx="1040.60" cy="259.07" r="0.62" fill="#676fe9" opacity="0.62"/><circle cx="655.23" cy="66.42" r="1.29" fill="#676fe9" opacity="0.30"/><circle cx="725.44" cy="228.62" r="1.58" fill="#a66ae7" opacity="0.71"/><circle cx="621.31" cy="174.09" r="0.83" fill="#676fe9" opacity="0.64"/><circle cx="738.78" cy="416.61" r="0.70" fill="#676fe9" opacity="0.68"/><circle cx="575.89" cy="220.83" r="0.65" fill="#a66ae7" opacity="0.68"/><circle cx="959.17" cy="243.41" r="1.05" fill="#676fe9" opacity="0.24"/><circle cx="968.35" cy="386.90" r="0.65" fill="#676fe9" opacity="0.63"/><circle cx="828.11" cy="151.18" r="0.79" fill="#a66ae7" opacity="0.61"/><circle cx="1017.77" cy="88.34" r="1.00" fill="#676fe9" opacity="0.75"/><circle cx="954.56" cy="406.72" r="1.67" fill="#676fe9" opacity="0.38"/><circle cx="887.95" cy="351.88" r="1.35" fill="#a66ae7" opacity="0.57"/><circle cx="1023.72" cy="135.24" r="1.46" fill="#676fe9" opacity="0.57"/><circle cx="981.13" cy="69.82" r="1.11" fill="#676fe9" opacity="0.49"/><circle cx="989.43" cy="108.35" r="1.23" fill="#a66ae7" opacity="0.23"/><circle cx="788.56" cy="91.10" r="1.34" fill="#676fe9" opacity="0.47"/><circle cx="915.45" cy="32.69" r="0.88" fill="#676fe9" opacity="0.53"/><circle cx="939.92" cy="395.49" r="0.83" fill="#a66ae7" opacity="0.33"/><circle cx="818.34" cy="76.41" r="1.48" fill="#676fe9" opacity="0.23"/><circle cx="958.69" cy="103.74" r="1.47" fill="#676fe9" opacity="0.76"/><text x="48" y="56" fill="#959ec4" font-size="13" text-anchor="start" font-weight="400">PROJECT / OPEN SOURCE</text><text x="48" y="182" font-size="74.0" fill="url(#brand)" font-weight="700">hflock</text><text x="50" y="242.0" fill="#eef5fd" font-size="24" text-anchor="start" font-weight="400">Give downloaded model files a</text><text x="50" y="275.6" fill="#eef5fd" font-size="24" text-anchor="start" font-weight="400">checkable manifest.</text><path d="M656.0 309.0L762.6 193.5L864.0 235.5L975.8 120.0" fill="none" stroke="#676fe9" stroke-width="1.5" marker-end="url(#arrow)"/><path d="M656.0 309.0L762.6 193.5L864.0 235.5L975.8 120.0" class="flow" fill="none" stroke="#accbf6" stroke-width="2"/><circle cx="656.0" cy="309.0" r="12" fill="#accbf6" opacity=".5" filter="url(#glow)"/><circle class="pulse" cx="656.0" cy="309.0" r="3" fill="#accbf6"/><circle cx="762.6" cy="193.5" r="12" fill="#accbf6" opacity=".5" filter="url(#glow)"/><circle class="pulse" cx="762.6" cy="193.5" r="3" fill="#accbf6"/><circle cx="864.0" cy="235.5" r="12" fill="#accbf6" opacity=".5" filter="url(#glow)"/><circle class="pulse" cx="864.0" cy="235.5" r="3" fill="#accbf6"/><circle cx="975.8" cy="120.0" r="12" fill="#accbf6" opacity=".5" filter="url(#glow)"/><circle class="pulse" cx="975.8" cy="120.0" r="3" fill="#accbf6"/></svg>
